<?xml version="1.0" encoding="utf-8"?>
<!-- Generator: Adobe Illustrator 24.0.3, SVG Export Plug-In . SVG Version: 6.00 Build 0)  -->
<svg version="1.1" id="Layer_1" xmlns="http://www.w3.org/2000/svg" xmlns:xlink="http://www.w3.org/1999/xlink" x="0px" y="0px"
	 viewBox="0 0 288 144" style="enable-background:new 0 0 288 144;" xml:space="preserve">
<style type="text/css">
	.st0{fill:#232728;}
	.st1{fill:#FFF;}
</style>
<path class="st0" d="M203.34,8.71h-6.91v26.63L167.81,8.82l-0.12-0.11h-8.78v9.27l-10.03-9.27h-7.2v6.94l-7.51-6.94h-6.86l-4.15,20
	l-21.54-20h-7.44L89.5,27.8L68.84,8.71H19.68v6.54l20.65,19.08l0.01,40.92l64.85,59.93l0.12,0.11h7.18v-23.95h2.84l25.61,23.95h8.12
	l5.09-20.7l22.25,20.7h8.32l3.68-16.88l18.14,16.77l0.12,0.11h7.19v-9.27l10.03,9.27h6.9l0.01-24.22c0.45-0.13,0.62-0.18,1.1-0.36
	c0.12-0.05,0.58-0.24,0.7-0.29l26.84,24.87h8.88V68.75L203.34,8.71z"/>
<polygon class="st1" points="115.77,65.85 101.75,9.31 94.45,9.27 94.45,9.34 80.48,64.92 68.33,9.25 20.12,9.25 20.12,14.94 
	40.62,14.94 40.62,74.88 47.44,74.88 47.44,14.94 63.29,14.94 76.51,75.61 84.86,75.54 97.97,21.12 111.36,75.1 119.96,75.18 
	133.68,9.06 127.78,9.06 "/>
<rect x="142.17" y="9.27" class="st1" width="6.5" height="65.73"/>
<polygon class="st1" points="203.25,9.27 196.75,9.27 196.75,64.17 167.59,9.27 159.17,9.27 159.17,75 166,75 166,20.81 
	194.79,75.06 203.25,75 "/>
<path class="st1" d="M93.37,81.43l-0.44-0.1c-3.74-0.93-7.68-0.05-10.8,2.39c-3.22,2.52-5.06,6.26-5.06,10.26
	c0,3.97,1.91,7.83,5.11,10.31c3.11,2.41,7.03,3.25,10.75,2.3l0.44-0.11v3.59l-0.28,0.05c-1.05,0.22-2.12,0.33-3.17,0.33
	c-3.65,0-7.23-1.27-10.16-3.66c-3.91-3.19-6.15-7.85-6.15-12.81c0-4.85,2.03-9.24,5.72-12.35c3.79-3.2,8.93-4.62,13.75-3.79
	l0.29,0.05V81.43z"/>
<polygon class="st1" points="111.66,110.18 108.15,110.18 108.15,90.94 99.48,90.94 99.48,110.18 96.02,110.18 96.02,77.79 
	99.48,77.79 99.48,87.43 108.15,87.43 108.15,77.79 111.66,77.79 "/>
<polygon class="st1" points="159.33,110.18 155.82,110.18 155.82,86.94 148.28,102.44 145.99,102.44 138.45,86.94 138.45,110.18 
	134.99,110.18 134.99,77.79 137.92,77.79 138.01,77.98 147.16,96.85 156.4,77.79 159.33,77.79 "/>
<polygon class="st1" points="177.57,81.25 165.43,81.25 165.43,89.78 174.58,89.78 174.58,93.24 165.43,93.24 165.43,106.72 
	177.16,106.72 177.16,110.18 161.97,110.18 161.97,77.79 177.57,77.79 "/>
<polygon class="st1" points="192.51,110.18 180.76,110.18 180.76,81.25 180.22,81.25 180.22,77.79 184.27,77.79 184.27,106.72 
	192.51,106.72 "/>
<polygon class="st1" points="210.34,110.18 195.15,110.18 195.15,77.79 210.75,77.79 210.75,81.25 198.62,81.25 198.62,89.78 
	207.76,89.78 207.76,93.24 198.62,93.24 198.62,106.72 210.34,106.72 "/>
<path class="st1" d="M264.12,110.18h-3.51V93.85c0-5.82-6.07-11.24-11.66-12.4v28.73h-3.46V77.79h0.35c6.18,0,11.8,3.59,14.77,7.2
	v-7.2h3.51V110.18z"/>
<path class="st1" d="M226.61,110.4c-8.96,0-16.24-7.36-16.24-16.42c0-9.05,7.28-16.42,16.24-16.42c8.8,0,16.24,7.52,16.24,16.42
	C242.85,102.88,235.41,110.4,226.61,110.4 M226.61,81.02c-6.93,0-12.78,5.94-12.78,12.96c0,7.03,5.85,12.96,12.78,12.96
	c6.9,0,12.73-5.93,12.73-12.96c0-3.45-1.33-6.71-3.75-9.17C233.19,82.37,230,81.02,226.61,81.02"/>
<path class="st1" d="M128.82,110.18l-1.77-7.47h-7.5l-1.77,7.47h-3.57l7.68-32.39h2.82l0.06,0.26l7.67,32.13H128.82z M123.3,86.9
	l-2.91,12.35h5.86L123.3,86.9z"/>
</svg>
